<?xml version="1.0" encoding="UTF-8"?>
<svg version="1.1" xmlns="http://www.w3.org/2000/svg" width="645" height="665">
<path d="M0 0 C1.85330519 1.04938388 1.85330519 1.04938388 4.69140625 1.90234375 C4.69140625 2.56234375 4.69140625 3.22234375 4.69140625 3.90234375 C5.31015625 4.04671875 5.92890625 4.19109375 6.56640625 4.33984375 C8.69140625 4.90234375 8.69140625 4.90234375 10.69140625 5.90234375 C10.69140625 6.56234375 10.69140625 7.22234375 10.69140625 7.90234375 C11.68140625 7.90234375 12.67140625 7.90234375 13.69140625 7.90234375 C13.69140625 8.56234375 13.69140625 9.22234375 13.69140625 9.90234375 C14.35140625 9.90234375 15.01140625 9.90234375 15.69140625 9.90234375 C17.05779967 11.54201585 18.38634815 13.21344503 19.69140625 14.90234375 C20.32908936 15.52729736 20.96677246 16.15225098 21.6237793 16.79614258 C23.66153587 18.8719161 25.25527893 20.95580834 26.8984375 23.3515625 C27.48560547 24.20041016 28.07277344 25.04925781 28.67773438 25.92382812 C29.28037109 26.80361328 29.88300781 27.68339844 30.50390625 28.58984375 C34.57253271 34.51308946 38.70263606 40.31160954 43.2175293 45.90551758 C44.64156737 47.83482144 45.69175064 49.72794817 46.69140625 51.90234375 C47.35140625 51.90234375 48.01140625 51.90234375 48.69140625 51.90234375 C48.69140625 52.56234375 48.69140625 53.22234375 48.69140625 53.90234375 C49.31015625 54.21171875 49.92890625 54.52109375 50.56640625 54.83984375 C51.94140625 55.52734375 53.31640625 56.21484375 54.69140625 56.90234375 C54.69140625 57.56234375 54.69140625 58.22234375 54.69140625 58.90234375 C66.28276675 63.6630811 78.53976397 66.48786914 90.69140625 61.90234375 C91.50480469 61.59941406 92.31820313 61.29648438 93.15625 60.984375 C97.61492781 59.27554253 101.60432972 57.37935983 105.69140625 54.90234375 C106.68140625 54.90234375 107.67140625 54.90234375 108.69140625 54.90234375 C109.02140625 53.91234375 109.35140625 52.92234375 109.69140625 51.90234375 C110.39265625 51.65484375 111.09390625 51.40734375 111.81640625 51.15234375 C115.34101774 49.61990397 117.23743827 47.52095803 119.86328125 44.76953125 C121.60700514 42.9885483 123.40808277 41.37867607 125.31640625 39.77734375 C129.26278009 36.45639969 132.81681998 32.81760845 136.37890625 29.08984375 C138.69140625 26.90234375 138.69140625 26.90234375 140.69140625 26.90234375 C141.02140625 25.91234375 141.35140625 24.92234375 141.69140625 23.90234375 C142.35140625 23.90234375 143.01140625 23.90234375 143.69140625 23.90234375 C143.69140625 23.24234375 143.69140625 22.58234375 143.69140625 21.90234375 C144.35140625 21.90234375 145.01140625 21.90234375 145.69140625 21.90234375 C145.69140625 21.24234375 145.69140625 20.58234375 145.69140625 19.90234375 C147.32401339 18.52751668 148.99365687 17.19586708 150.69140625 15.90234375 C151.35140625 15.24234375 152.01140625 14.58234375 152.69140625 13.90234375 C153.68140625 13.90234375 154.67140625 13.90234375 155.69140625 13.90234375 C155.69140625 13.24234375 155.69140625 12.58234375 155.69140625 11.90234375 C158.84286861 9.61585723 162.29601833 7.80114195 165.69140625 5.90234375 C166.48289062 5.44085938 167.274375 4.979375 168.08984375 4.50390625 C182.0418308 -3.14419296 200.34855193 -5.09319123 215.69140625 -1.09765625 C221.74838573 0.73530855 227.72552908 2.79440048 233.69140625 4.90234375 C233.69140625 5.56234375 233.69140625 6.22234375 233.69140625 6.90234375 C234.243125 6.99644531 234.79484375 7.09054687 235.36328125 7.1875 C238.3154619 8.09395815 240.41861969 9.56577893 242.94140625 11.33984375 C243.8334375 11.95730469 244.72546875 12.57476563 245.64453125 13.2109375 C246.32 13.76910156 246.99546875 14.32726562 247.69140625 14.90234375 C247.69140625 15.56234375 247.69140625 16.22234375 247.69140625 16.90234375 C248.29339844 17.17175781 248.89539063 17.44117187 249.515625 17.71875 C260.92447517 23.92500063 267.00044418 40.82034678 270.44140625 52.43359375 C274.71837115 71.20471747 271.51592745 90.5891308 263.69140625 107.90234375 C263.17320312 109.06443359 263.17320312 109.06443359 262.64453125 110.25 C261.85689902 111.99519882 261.06217427 113.7372079 260.26171875 115.4765625 C258.1102138 120.17026856 255.99564538 124.88037808 253.87890625 129.58984375 C253.46938721 130.50040527 253.05986816 131.4109668 252.63793945 132.34912109 C251.65555849 134.53343736 250.67338637 136.71784726 249.69140625 138.90234375 C249.03140625 138.90234375 248.37140625 138.90234375 247.69140625 138.90234375 C247.03140625 141.87234375 246.37140625 144.84234375 245.69140625 147.90234375 C245.03140625 147.90234375 244.37140625 147.90234375 243.69140625 147.90234375 C243.50964844 148.629375 243.32789063 149.35640625 243.140625 150.10546875 C242.88925781 151.1109375 242.63789063 152.11640625 242.37890625 153.15234375 C242.10691406 154.24289063 241.83492188 155.3334375 241.5546875 156.45703125 C240.99451596 158.69264799 240.42968671 160.92710477 239.859375 163.16015625 C239.59769531 164.18882812 239.33601563 165.2175 239.06640625 166.27734375 C238.82664062 167.21320313 238.586875 168.1490625 238.33984375 169.11328125 C236.87660219 175.40698291 236.50868837 181.3406151 236.50390625 187.77734375 C236.49166016 188.63714844 236.47941406 189.49695313 236.46679688 190.3828125 C236.43899193 202.59845168 240.55055643 212.18285371 247.69140625 221.90234375 C247.69140625 222.56234375 247.69140625 223.22234375 247.69140625 223.90234375 C248.35140625 223.90234375 249.01140625 223.90234375 249.69140625 223.90234375 C249.69140625 224.56234375 249.69140625 225.22234375 249.69140625 225.90234375 C250.46484375 226.27359375 250.46484375 226.27359375 251.25390625 226.65234375 C253.16249614 227.6311078 255.03012377 228.68982465 256.87890625 229.77734375 C258.14618609 230.49201519 259.41718737 231.20011892 260.69140625 231.90234375 C261.60986328 232.41861328 261.60986328 232.41861328 262.546875 232.9453125 C282.68140019 243.1099374 309.17070774 239.80752631 330.69140625 236.90234375 C334.3542755 236.50869332 338.01960876 236.19895135 341.69140625 235.90234375 C342.86445312 235.78632813 344.0375 235.6703125 345.24609375 235.55078125 C362.30427646 234.09830233 379.46127828 235.44116155 394.69140625 243.90234375 C394.69140625 244.56234375 394.69140625 245.22234375 394.69140625 245.90234375 C395.41328125 246.12921875 396.13515625 246.35609375 396.87890625 246.58984375 C400.24700182 248.16162168 402.29061049 250.15304538 404.69140625 252.90234375 C405.3359375 253.61648438 405.98046875 254.330625 406.64453125 255.06640625 C411.69251027 260.9557151 414.67775835 266.42005207 416.69140625 273.90234375 C416.91570313 274.72992188 417.14 275.5575 417.37109375 276.41015625 C420.19484223 289.0590022 419.7110022 302.62119528 415.69140625 314.90234375 C415.22154297 316.44535156 415.22154297 316.44535156 414.7421875 318.01953125 C412.86771139 323.96154641 410.64461896 329.41780586 407.69140625 334.90234375 C407.03140625 334.90234375 406.37140625 334.90234375 405.69140625 334.90234375 C405.56765625 335.64484375 405.44390625 336.38734375 405.31640625 337.15234375 C404.73653924 339.7037586 403.95431886 341.62910105 402.69140625 343.90234375 C402.03140625 343.90234375 401.37140625 343.90234375 400.69140625 343.90234375 C400.60890625 344.43859375 400.52640625 344.97484375 400.44140625 345.52734375 C399.42321376 348.75161997 397.60242055 351.11772292 395.69140625 353.90234375 C394.31854607 356.21526412 393.0057649 358.55527473 391.69140625 360.90234375 C391.03140625 360.90234375 390.37140625 360.90234375 389.69140625 360.90234375 C389.03140625 362.88234375 388.37140625 364.86234375 387.69140625 366.90234375 C387.03140625 366.90234375 386.37140625 366.90234375 385.69140625 366.90234375 C385.44261719 367.61648438 385.19382812 368.330625 384.9375 369.06640625 C383.56012958 372.20111135 381.83959594 374.56633555 379.75390625 377.27734375 C377.4538374 380.36067929 375.35020163 383.18845719 373.94140625 386.77734375 C372.62825507 390.06022171 370.93950832 392.20462127 368.69140625 394.90234375 C368.36140625 395.89234375 368.03140625 396.88234375 367.69140625 397.90234375 C367.03140625 397.90234375 366.37140625 397.90234375 365.69140625 397.90234375 C365.60890625 398.72734375 365.52640625 399.55234375 365.44140625 400.40234375 C364.70538232 403.83712209 363.41645091 406.3722127 361.8046875 409.4609375 C351.82002728 431.35712218 354.25443571 452.92196414 361.69140625 474.90234375 C365.28826692 484.4619424 369.62432284 493.66865325 373.99975586 502.89038086 C374.79732167 504.5716254 375.59369955 506.25343398 376.38891602 507.93579102 C377.95294291 511.24437222 379.51757551 514.54998414 381.13671875 517.83203125 C393.63728912 543.74380957 397.8184757 570.75653143 388.25390625 598.27734375 C386.36358168 603.66849468 384.38362546 608.84722879 381.69140625 613.90234375 C381.03140625 613.90234375 380.37140625 613.90234375 379.69140625 613.90234375 C379.58699219 614.47855469 379.48257813 615.05476562 379.375 615.6484375 C378.58426152 618.25561523 377.43561057 619.83084731 375.75390625 621.96484375 C373.97140179 624.24662465 372.30054057 626.48864227 370.69140625 628.90234375 C369.55223945 630.15703926 368.3834003 631.38522265 367.19140625 632.58984375 C366.27875 633.52376953 366.27875 633.52376953 365.34765625 634.4765625 C363.69140625 635.90234375 363.69140625 635.90234375 361.69140625 635.90234375 C361.4696875 636.48242188 361.24796875 637.0625 361.01953125 637.66015625 C355.07076181 647.70307878 337.93209737 652.90234916 327.35253906 655.68847656 C311.25673988 659.72553369 293.63926744 661.32547397 277.69140625 655.90234375 C276.41075807 655.49808851 275.12946353 655.09587728 273.84765625 654.6953125 C267.90627136 652.80148712 262.22614993 650.81358507 256.69140625 647.90234375 C256.69140625 647.24234375 256.69140625 646.58234375 256.69140625 645.90234375 C256.170625 645.81855469 255.64984375 645.73476563 255.11328125 645.6484375 C251.74441882 644.61061052 248.91467882 642.81088661 245.94140625 640.96484375 C245.33941406 640.60455078 244.73742187 640.24425781 244.1171875 639.87304688 C242.60415231 638.94155242 241.14245756 637.92772539 239.69140625 636.90234375 C239.69140625 636.24234375 239.69140625 635.58234375 239.69140625 634.90234375 C238.70140625 634.90234375 237.71140625 634.90234375 236.69140625 634.90234375 C236.69140625 634.24234375 236.69140625 633.58234375 236.69140625 632.90234375 C235.70140625 632.90234375 234.71140625 632.90234375 233.69140625 632.90234375 C233.69140625 632.24234375 233.69140625 631.58234375 233.69140625 630.90234375 C233.03140625 630.90234375 232.37140625 630.90234375 231.69140625 630.90234375 C231.69140625 630.24234375 231.69140625 629.58234375 231.69140625 628.90234375 C230.70140625 628.90234375 229.71140625 628.90234375 228.69140625 628.90234375 C228.69140625 628.24234375 228.69140625 627.58234375 228.69140625 626.90234375 C228.07265625 626.59296875 227.45390625 626.28359375 226.81640625 625.96484375 C225.44140625 625.27734375 224.06640625 624.58984375 222.69140625 623.90234375 C222.69140625 623.24234375 222.69140625 622.58234375 222.69140625 621.90234375 C221.04140625 621.24234375 219.39140625 620.58234375 217.69140625 619.90234375 C217.69140625 619.24234375 217.69140625 618.58234375 217.69140625 617.90234375 C216.04140625 617.24234375 214.39140625 616.58234375 212.69140625 615.90234375 C212.69140625 615.24234375 212.69140625 614.58234375 212.69140625 613.90234375 C212.13453125 613.63421875 211.57765625 613.36609375 211.00390625 613.08984375 C208.47915291 611.79334879 206.05426141 610.47758052 203.69140625 608.90234375 C203.69140625 608.24234375 203.69140625 607.58234375 203.69140625 606.90234375 C202.70140625 606.90234375 201.71140625 606.90234375 200.69140625 606.90234375 C200.69140625 606.24234375 200.69140625 605.58234375 200.69140625 604.90234375 C199.96179688 604.63550781 199.2321875 604.36867188 198.48046875 604.09375 C195.72786366 602.91791729 193.51388245 601.55139498 191.06640625 599.83984375 C188.51984469 598.06246546 186.65942809 596.89168436 183.69140625 595.90234375 C183.69140625 595.24234375 183.69140625 594.58234375 183.69140625 593.90234375 C182.86382812 593.63421875 182.03625 593.36609375 181.18359375 593.08984375 C178.74134515 592.25936995 176.35066339 591.39744361 173.94921875 590.46484375 C142.33390917 578.38046374 111.73921903 585.51395122 81.69140625 598.90234375 C80.89734375 599.25296875 80.10328125 599.60359375 79.28515625 599.96484375 C78.59421875 600.27421875 77.90328125 600.58359375 77.19140625 600.90234375 C73.37281659 602.60452863 69.53791609 604.26401548 65.69140625 605.90234375 C64.63953125 606.35609375 63.58765625 606.80984375 62.50390625 607.27734375 C58.25336926 609.09764098 53.98771978 610.88126037 49.71484375 612.6484375 C47.90274365 613.39996739 46.0941327 614.16012468 44.29296875 614.9375 C30.97349861 620.55167939 16.97492974 623.91422684 2.69140625 625.90234375 C1.01111328 626.13630859 1.01111328 626.13630859 -0.703125 626.375 C-19.59201801 628.40130542 -37.74929651 623.39442076 -53.28125 612.63671875 C-53.95027344 612.064375 -54.61929688 611.49203125 -55.30859375 610.90234375 C-55.30859375 610.24234375 -55.30859375 609.58234375 -55.30859375 608.90234375 C-55.96859375 608.90234375 -56.62859375 608.90234375 -57.30859375 608.90234375 C-58.67498717 607.26267165 -60.00353565 605.59124247 -61.30859375 603.90234375 C-61.90929687 603.32613281 -62.51 602.74992188 -63.12890625 602.15625 C-65.85330487 599.33908512 -68.05239296 596.2861282 -70.30859375 593.08984375 C-70.73398438 592.49880859 -71.159375 591.90777344 -71.59765625 591.29882812 C-74.44547346 587.29353919 -76.90957521 583.19089855 -79.30859375 578.90234375 C-87.00241984 566.14694952 -87.00241984 566.14694952 -97.24609375 555.46484375 C-98.25671875 554.61921875 -99.26734375 553.77359375 -100.30859375 552.90234375 C-100.30859375 552.24234375 -100.30859375 551.58234375 -100.30859375 550.90234375 C-101.29859375 550.90234375 -102.28859375 550.90234375 -103.30859375 550.90234375 C-103.30859375 550.24234375 -103.30859375 549.58234375 -103.30859375 548.90234375 C-104.29859375 548.90234375 -105.28859375 548.90234375 -106.30859375 548.90234375 C-106.30859375 548.24234375 -106.30859375 547.58234375 -106.30859375 546.90234375 C-107.25734375 546.65484375 -108.20609375 546.40734375 -109.18359375 546.15234375 C-112.24466277 545.29352679 -115.08005522 544.16486124 -117.99609375 542.90234375 C-123.67492185 540.59505377 -129.26798055 539.76724973 -135.30859375 538.90234375 C-138.14423776 538.43676926 -140.97602667 537.94874446 -143.80859375 537.46484375 C-148.65900405 536.64277527 -153.51003221 535.86199957 -158.3828125 535.18359375 C-177.34797212 532.5378816 -199.03089525 529.22124629 -211.37109375 512.96484375 C-211.80228516 512.40071777 -212.23347656 511.8365918 -212.67773438 511.25537109 C-216.81374395 505.60668328 -219.26803341 499.58517885 -221.30859375 492.90234375 C-221.64632812 491.82210938 -221.9840625 490.741875 -222.33203125 489.62890625 C-226.07719282 475.33736968 -226.90790874 460.60506543 -226.30859375 445.90234375 C-226.26605469 444.81695312 -226.22351563 443.7315625 -226.1796875 442.61328125 C-225.65066275 434.26144369 -224.0061309 426.08383451 -222.30859375 417.90234375 C-222.17275879 417.21889893 -222.03692383 416.5354541 -221.89697266 415.83129883 C-220.55833115 409.39641291 -218.61559886 403.20259397 -216.55859375 396.96484375 C-216.23632812 395.94455078 -215.9140625 394.92425781 -215.58203125 393.87304688 C-213.29335141 386.92273425 -210.31335222 381.01344096 -206.30859375 374.90234375 C-205.89351562 374.24967529 -205.4784375 373.59700684 -205.05078125 372.92456055 C-203.57411722 370.60636016 -202.07032433 368.30643336 -200.56640625 366.00585938 C-197.99709538 362.04785408 -195.61951049 358.01703035 -193.30859375 353.90234375 C-192.64859375 353.90234375 -191.98859375 353.90234375 -191.30859375 353.90234375 C-191.08300781 353.23589844 -190.85742188 352.56945312 -190.625 351.8828125 C-188.91525119 348.01177885 -186.6336839 344.69660534 -184.24609375 341.21484375 C-181.06656758 336.68488537 -181.06656758 336.68488537 -178.30859375 331.90234375 C-177.64859375 331.90234375 -176.98859375 331.90234375 -176.30859375 331.90234375 C-175.64859375 329.92234375 -174.98859375 327.94234375 -174.30859375 325.90234375 C-173.64859375 325.90234375 -172.98859375 325.90234375 -172.30859375 325.90234375 C-172.18097656 325.3196875 -172.05335938 324.73703125 -171.921875 324.13671875 C-171.32062541 321.94617884 -170.53953855 320.16440465 -169.49609375 318.15234375 C-168.96822266 317.12367188 -168.96822266 317.12367188 -168.4296875 316.07421875 C-168.05972656 315.3575 -167.68976563 314.64078125 -167.30859375 313.90234375 C-166.55655502 312.40336485 -165.80646383 310.90340682 -165.05859375 309.40234375 C-164.48109375 308.24734375 -163.90359375 307.09234375 -163.30859375 305.90234375 C-162.64859375 305.90234375 -161.98859375 305.90234375 -161.30859375 305.90234375 C-160.93734375 304.01515625 -160.93734375 304.01515625 -160.55859375 302.08984375 C-159.76734882 298.48715408 -158.70243473 295.15286606 -157.37109375 291.71484375 C-145.37504148 259.9342575 -151.54179144 224.69890492 -155.31665039 191.95458984 C-156.3426426 182.94214178 -157.06990936 173.97036156 -157.30859375 164.90234375 C-157.33050781 164.07621582 -157.35242188 163.25008789 -157.375 162.39892578 C-157.59928079 152.37918134 -157.59862118 142.71491937 -155.30859375 132.90234375 C-155.16373535 132.27344238 -155.01887695 131.64454102 -154.86962891 130.99658203 C-153.04985011 123.17394474 -151.01226819 115.47263218 -148.30859375 107.90234375 C-147.64859375 107.90234375 -146.98859375 107.90234375 -146.30859375 107.90234375 C-145.84453125 106.47921875 -145.84453125 106.47921875 -145.37109375 105.02734375 C-144.30859375 101.90234375 -144.30859375 101.90234375 -143.30859375 99.90234375 C-142.64859375 99.90234375 -141.98859375 99.90234375 -141.30859375 99.90234375 C-140.64859375 98.25234375 -139.98859375 96.60234375 -139.30859375 94.90234375 C-138.64859375 94.90234375 -137.98859375 94.90234375 -137.30859375 94.90234375 C-137.06109375 94.34546875 -136.81359375 93.78859375 -136.55859375 93.21484375 C-134.11562905 88.69535906 -130.95593043 85.43146444 -126.95703125 82.234375 C-124.54153702 80.28251829 -122.23915322 78.20362438 -119.921875 76.13671875 C-118.30859375 74.90234375 -118.30859375 74.90234375 -115.30859375 73.90234375 C-114.81359375 72.41734375 -114.81359375 72.41734375 -114.30859375 70.90234375 C-112.56640625 69.11328125 -112.56640625 69.11328125 -110.43359375 67.27734375 C-109.73492187 66.66632813 -109.03625 66.0553125 -108.31640625 65.42578125 C-106.30859375 63.90234375 -106.30859375 63.90234375 -103.30859375 62.90234375 C-102.25838272 61.05262679 -102.25838272 61.05262679 -101.30859375 58.90234375 C-99.80859375 56.65234375 -99.80859375 56.65234375 -98.30859375 54.90234375 C-97.64859375 54.90234375 -96.98859375 54.90234375 -96.30859375 54.90234375 C-96.01984375 54.13921875 -95.73109375 53.37609375 -95.43359375 52.58984375 C-94.30859375 49.90234375 -94.30859375 49.90234375 -92.30859375 46.90234375 C-91.64859375 46.90234375 -90.98859375 46.90234375 -90.30859375 46.90234375 C-90.21191406 46.36222656 -90.11523438 45.82210937 -90.015625 45.265625 C-89.1059252 42.22491574 -87.6273415 39.81091869 -85.99609375 37.08984375 C-85.36960938 36.03667969 -84.743125 34.98351563 -84.09765625 33.8984375 C-83.50726563 32.90972656 -82.916875 31.92101563 -82.30859375 30.90234375 C-80.96427679 28.57504358 -79.63632788 26.23915581 -78.30859375 23.90234375 C-77.64859375 23.90234375 -76.98859375 23.90234375 -76.30859375 23.90234375 C-76.20417969 23.33 -76.09976563 22.75765625 -75.9921875 22.16796875 C-75.19699876 19.53248607 -74.02957884 17.84203067 -72.37109375 15.65234375 C-71.84644531 14.9459375 -71.32179687 14.23953125 -70.78125 13.51171875 C-70.29527344 12.980625 -69.80929688 12.44953125 -69.30859375 11.90234375 C-68.64859375 11.90234375 -67.98859375 11.90234375 -67.30859375 11.90234375 C-67.30859375 11.24234375 -67.30859375 10.58234375 -67.30859375 9.90234375 C-66.64859375 9.90234375 -65.98859375 9.90234375 -65.30859375 9.90234375 C-65.30859375 9.24234375 -65.30859375 8.58234375 -65.30859375 7.90234375 C-49.637065 -7.81527773 -18.99436406 -10.50836425 0 0 Z " fill="#D6E0D7" transform="translate(226.30859375,6.09765625)"/>
</svg>
