<?xml version="1.0" encoding="UTF-8"?>
<svg version="1.1" xmlns="http://www.w3.org/2000/svg" width="613" height="801">
<path d="M0 0 C1.39567098 -0.00409829 1.39567098 -0.00409829 2.81953734 -0.00827938 C3.85442284 -0.00615427 4.88930834 -0.00402915 5.95555401 -0.00183964 C7.04672569 -0.00346731 8.13789736 -0.00509498 9.26213485 -0.00677198 C12.95395741 -0.01085281 16.64573511 -0.00752411 20.33755779 -0.00405216 C22.30271865 -0.00470904 24.26787954 -0.00537177 26.23304017 -0.00651281 C33.37390423 -0.01064134 40.51474837 -0.00732202 47.65560974 -0.00060903 C52.98707528 0.00440238 58.31853885 0.00746377 63.65000629 0.00953007 C130.43909939 0.03818569 197.22495287 0.44607019 264.01196767 0.9434516 C275.86461314 1.03166925 287.71728262 1.11564976 299.56997967 1.19663143 C313.72974281 1.29338122 327.889489 1.39217423 342.04921371 1.49440867 C343.56884436 1.50537975 345.08847501 1.5163508 346.60810566 1.52732182 C347.35382924 1.53270932 348.09955282 1.53809683 348.86787408 1.5436476 C353.95162567 1.58026677 359.035385 1.61562297 364.11914921 1.65044117 C370.30816893 1.69289072 376.49716597 1.73781264 382.68614837 1.78540128 C385.79838634 1.80928895 388.91062324 1.83206885 392.02288532 1.85260677 C418.59389762 2.0294673 445.14698929 2.62523841 471.71719646 3.12656307 C471.71719646 266.46656307 471.71719646 529.80656307 471.71719646 801.12656307 C348.77157146 801.59062557 348.77157146 801.59062557 223.34219646 802.06406307 C197.43413494 802.20062313 171.52607342 802.33718319 144.83291912 802.47788143 C113.26675701 802.54563046 113.26675701 802.54563046 98.50293255 802.55821896 C87.47962651 802.57315308 76.45751004 802.63788247 65.43464245 802.72666448 C54.19426676 802.81597502 42.95473976 802.84793382 31.71393832 802.82823733 C25.61239377 802.81918616 19.51345131 802.83368846 13.41238236 802.91479003 C7.89521242 802.98768514 2.38248761 802.99150436 -3.13488483 802.94007969 C-5.12954738 802.93371456 -7.1244864 802.95278511 -9.1186049 802.99980175 C-23.64808014 803.32225377 -23.64808014 803.32225377 -28.0432463 799.65946873 C-31.1541252 796.11516888 -33.36279878 792.19823614 -35.38902862 787.95945806 C-36.66062894 785.35174351 -38.20134332 782.93137847 -39.75155354 780.48203182 C-40.7672122 778.76246098 -41.77763616 777.03978754 -42.78280354 775.31406307 C-43.33266926 774.37522274 -43.88253498 773.43638241 -44.4490633 772.46909237 C-49.53018073 763.7610295 -54.50749447 755.00618556 -59.28280354 746.12656307 C-59.79391682 745.17813534 -60.3050301 744.2297076 -60.83163166 743.25253963 C-96.66634685 676.38504571 -120.76465185 603.94413656 -137.53280354 498.56406307 C-137.68394611 497.29546444 -137.83508869 496.02686581 -137.99081135 494.71982479 C-138.37311693 491.32006669 -138.72773674 487.92068372 -139.05395222 484.51523495 C-139.21390542 482.84569805 -139.3786638 481.17661766 -139.54705524 479.50791073 C-141.44152893 460.33024509 -141.62626783 441.21330344 -141.59847736 421.96298885 C-141.59386695 418.50647551 -141.6007087 415.05031587 -141.61898518 411.59384823 C-141.77728132 381.32921655 -140.25735389 351.36452263 -135.97030354 321.37656307 C-135.86642323 320.6307095 -135.76254292 319.88485592 -135.65551472 319.11640072 C-125.54486432 246.70917774 -103.94769111 176.97861029 -72.28280354 111.12656307 C-71.60121174 109.70561337 -71.60121174 109.70561337 -70.90585041 108.2559576 C-63.96235905 93.86694547 -56.30205724 79.94082474 -48.28280354 66.12656307 C-47.82389729 65.32669979 -47.36499104 64.52683651 -46.89217854 63.70273495 C-40.09201573 51.87245171 -32.64929007 40.48390369 -25.09530354 29.12656307 C-24.39378666 28.06952175 -24.39378666 28.06952175 -23.67809772 26.99112606 C-5.73592409 0.00209795 -5.73592409 0.00209795 0 0 Z " fill="#DCDCDC" transform="translate(141.28280353546143,-0.12656307220458984)"/>
</svg>
