<?xml version="1.0" encoding="UTF-8"?>
<svg version="1.1" xmlns="http://www.w3.org/2000/svg" width="910" height="900">
<path d="M0 0 C79.44040972 -0.05139884 158.88082144 -0.09909996 238.32124329 -0.12702942 C239.49627411 -0.12744359 240.67130494 -0.12785776 241.88194276 -0.12828448 C267.41619056 -0.13726241 292.95043853 -0.14557307 318.48468677 -0.15319599 C331.00598588 -0.15693812 343.52728494 -0.16082777 356.04858398 -0.16479492 C357.294629 -0.1651872 358.54067401 -0.16557948 359.82447796 -0.16598364 C400.24004485 -0.17877636 440.65559919 -0.20131675 481.07115847 -0.22889166 C522.59021573 -0.25716814 564.10926604 -0.27565138 605.62833278 -0.28174497 C611.48749523 -0.28260948 617.34665766 -0.28358639 623.20582008 -0.28463173 C624.35903047 -0.284834 625.51224086 -0.28503627 626.70039701 -0.28524467 C645.2923629 -0.28879507 663.88430734 -0.30272336 682.47626447 -0.3204961 C701.15021375 -0.33812707 719.82414168 -0.34491167 738.49809899 -0.34050413 C749.60378132 -0.33821581 760.70938578 -0.34436415 771.81505411 -0.36239263 C779.22416733 -0.37360262 786.63322928 -0.37401908 794.04234597 -0.36549544 C798.27003845 -0.36094564 802.49758318 -0.36124372 806.7252601 -0.37464955 C810.56727639 -0.38674047 814.40902888 -0.38515768 818.25104086 -0.37241993 C819.63620152 -0.37026784 821.02138123 -0.3732038 822.40651746 -0.38170573 C824.28144146 -0.39248913 826.15644936 -0.38307072 828.03137511 -0.37259549 C829.07129793 -0.37306343 830.11122075 -0.37353137 831.18265639 -0.37401349 C834.44414791 0.05896239 836.29777804 1.17008622 839 3 C840.54773635 3.66071434 842.11103701 4.28610639 843.6875 4.875 C855.83680814 9.67316193 862.71995174 13.98884135 868.7265625 25.7890625 C869.9570817 28.08498581 869.9570817 28.08498581 871.83984375 30.13671875 C874.88940386 34.1789024 876.82696139 38.60119941 878.9375 43.1875 C879.77895129 44.99395415 880.6213971 46.79994539 881.46484375 48.60546875 C881.8815332 49.50128662 882.29822266 50.39710449 882.72753906 51.32006836 C883.97676393 53.95106247 885.28217936 56.54622876 886.60546875 59.140625 C913.23703901 112.11751648 915.76533197 178.99390213 903 236 C902.81147461 236.84691406 902.62294922 237.69382813 902.42871094 238.56640625 C901.79650479 241.38016884 901.15085242 244.19049516 900.5 247 C900.29842285 247.88494141 900.0968457 248.76988281 899.88916016 249.68164062 C898.6899202 254.74830906 897.13773935 259.25725587 895 264 C894.51003348 265.57383185 894.04800494 267.1568645 893.625 268.75 C892.25504745 273.48386745 890.3564209 277.81202402 888.26171875 282.265625 C886.67989792 285.69371967 885.29451505 289.18245358 883.9140625 292.6953125 C882.67258535 295.82553267 881.34261318 298.91198969 880 302 C879.34 302 878.68 302 878 302 C877.84724609 302.79664063 877.84724609 302.79664063 877.69140625 303.609375 C876.79691899 306.7021784 875.40138873 309.38451568 873.9375 312.25 C873.38964844 313.32765625 872.84179688 314.4053125 872.27734375 315.515625 C871.64505859 316.74539063 871.64505859 316.74539063 871 318 C870.34 318 869.68 318 869 318 C868.87625 318.5775 868.7525 319.155 868.625 319.75 C867.99351176 322.02335767 867.11141809 323.9253529 866 326 C865.34 326 864.68 326 864 326 C863.71125 326.969375 863.4225 327.93875 863.125 328.9375 C862 332 862 332 860 333 C858.96210419 334.64333504 857.96432076 336.31243867 857 338 C856.34 338.99 855.68 339.98 855 341 C854.34 341 853.68 341 853 341 C852.9175 341.556875 852.835 342.11375 852.75 342.6875 C851.76104459 345.73677919 850.15242534 347.65189963 848 350 C847.34 350 846.68 350 846 350 C846 350.66 846 351.32 846 352 C844.625 353.625 844.625 353.625 843 355 C842.34 355 841.68 355 841 355 C840.773125 355.53625 840.54625 356.0725 840.3125 356.625 C838.54429911 359.82460161 836.46329797 362.29037223 834 365 C833.34 365 832.68 365 832 365 C831.67 365.99 831.34 366.98 831 368 C830.34 368 829.68 368 829 368 C829 368.66 829 369.32 829 370 C828.34 370 827.68 370 827 370 C826.75894531 370.7528125 826.51789062 371.505625 826.26953125 372.28125 C824.81515377 375.39585531 823.46226637 376.52268749 820.6875 378.5 C816.47518137 381.61021922 812.87985481 384.98089668 809.3125 388.8125 C808 390 808 390 806 390 C805.67 390.99 805.34 391.98 805 393 C804.34 393 803.68 393 803 393 C803 393.66 803 394.32 803 395 C802.34 395 801.68 395 801 395 C800.773125 395.7425 800.54625 396.485 800.3125 397.25 C798.7410439 400.5425747 797.00004284 401.97497109 794 404 C793.34 404 792.68 404 792 404 C792 404.66 792 405.32 792 406 C790.625 407.625 790.625 407.625 789 409 C788.34 409 787.68 409 787 409 C787 409.66 787 410.32 787 411 C785.625 412.625 785.625 412.625 784 414 C783.34 414 782.68 414 782 414 C781.34 415.65 780.68 417.3 780 419 C779.34 419 778.68 419 778 419 C777.60361328 419.86238281 777.60361328 419.86238281 777.19921875 420.7421875 C775.93881469 423.1151958 774.49796574 425.03455966 772.8125 427.125 C770.14342753 430.50619895 767.56122073 433.92811784 765.0625 437.4375 C764.18271484 438.67306641 764.18271484 438.67306641 763.28515625 439.93359375 C761.82395938 441.8774818 761.82395938 441.8774818 762 444 C761.54625 444.433125 761.0925 444.86625 760.625 445.3125 C758.65690769 447.35628817 757.93273129 449.34530324 757 452 C756.34 452 755.68 452 755 452 C755 453.32 755 454.64 755 456 C754.34 456 753.68 456 753 456 C752.83757812 457.02287109 752.83757812 457.02287109 752.671875 458.06640625 C752.03373285 460.85271294 751.11191661 463.36767429 750.03222656 466.0090332 C747.14126392 473.13628474 744.98741889 480.32236779 743.25 487.8125 C743.05180664 488.63935303 742.85361328 489.46620605 742.64941406 490.31811523 C739.14692779 506.11372959 738.53492515 522.37704371 738.5 538.5 C738.49348923 539.94105606 738.49348923 539.94105606 738.48684692 541.41122437 C738.443553 572.65521506 742.08496195 603.84130125 745.29872131 634.8855896 C748.87983235 669.799345 752.17222796 715.25775327 737 748 C736.46788219 749.67764921 735.96379158 751.36469153 735.5 753.0625 C734.37444536 756.97232139 732.85560427 760.37313711 731 764 C730.30092586 766.73572585 730.30092586 766.73572585 730 769 C729.34 769 728.68 769 728 769 C727.34 771.97 726.68 774.94 726 778 C725.34 778 724.68 778 724 778 C723.80664062 778.60328125 723.61328125 779.2065625 723.4140625 779.828125 C723.02347656 781.02695313 723.02347656 781.02695313 722.625 782.25 C722.24214844 783.43335938 722.24214844 783.43335938 721.8515625 784.640625 C721.04826333 786.86627958 720.10288338 788.90931672 719 791 C718.34 791 717.68 791 717 791 C717 792.32 717 793.64 717 795 C716.34 795 715.68 795 715 795 C714.731875 795.721875 714.46375 796.44375 714.1875 797.1875 C713.00098638 799.99766383 711.72514361 802.48416557 710 805 C709.34 805 708.68 805 708 805 C707.773125 805.845625 707.54625 806.69125 707.3125 807.5625 C705.80761382 811.50386856 703.87296745 814.88761859 701 818 C700.34 818 699.68 818 699 818 C699 818.66 699 819.32 699 820 C698.02149805 821.02104551 697.02019573 822.0206121 696 823 C695.67 823.66 695.34 824.32 695 825 C694.34 825 693.68 825 693 825 C692.938125 825.5775 692.87625 826.155 692.8125 826.75 C691.67561467 829.89829784 689.63092771 830.98091594 687 833 C686.38125 833.78375 685.7625 834.5675 685.125 835.375 C682.8225667 838.21918231 680.31923205 840.37047334 677.48828125 842.66796875 C675.87117455 843.95079945 675.87117455 843.95079945 675 846 C674.34 846 673.68 846 673 846 C673 846.66 673 847.32 673 848 C672.401875 848.268125 671.80375 848.53625 671.1875 848.8125 C669.00850785 849.861285 669.00850785 849.861285 667.625 851.375 C665.32919152 853.67080848 662.75548574 855.29980667 660 857 C659.34 857 658.68 857 658 857 C657.67 857.99 657.34 858.98 657 860 C654.9375 860.6875 654.9375 860.6875 653 861 C653 861.66 653 862.32 653 863 C652.071875 863.433125 651.14375 863.86625 650.1875 864.3125 C647.1231307 865.72313707 647.1231307 865.72313707 645.61328125 867.4375 C643.59767594 869.38966011 641.51052016 870.4434476 639 871.6875 C638.13375 872.12449219 637.2675 872.56148437 636.375 873.01171875 C634 874 634 874 631 874 C630.67 874.66 630.34 875.32 630 876 C626.00055751 879.09956793 622.31560383 880.67089798 617.50390625 882.14453125 C613.72279839 883.43636061 610.17336741 885.17951573 606.578125 886.9140625 C604.02670248 887.98875259 601.70916164 888.48031805 599 889 C597.32690201 889.65035784 595.66016913 890.31731363 594 891 C592.30055455 891.52942226 590.59144999 892.02861672 588.875 892.5 C588.02679687 892.7371875 587.17859375 892.974375 586.3046875 893.21875 C562.81534583 898.77178586 537.04372297 901.69994525 513 899 C511.56536608 898.88344874 510.13044254 898.77043072 508.6953125 898.66015625 C487.91903738 896.94468399 467.1550274 891.20929746 448 883 C447.35675781 882.73316406 446.71351563 882.46632813 446.05078125 882.19140625 C442.28279729 880.61392056 438.63756975 878.85590293 435 877 C433.824375 876.443125 432.64875 875.88625 431.4375 875.3125 C426.44731694 872.82700498 421.76753018 869.830239 417.04296875 866.8828125 C414.79863621 865.49414975 412.55635283 864.15451509 410.25 862.875 C404.81751025 859.7408713 399.52780405 856.39021451 394.75 852.3125 C392.24670758 850.20745864 389.83960207 848.60182681 387 847 C380.25335488 843.02120929 373.9793682 838.55496572 367.68359375 833.90234375 C363.49179315 830.93086356 359.08880786 828.48295115 354.5625 826.0625 C351.50988117 824.4115522 348.63249323 822.75263968 345.75 820.8125 C342.62229997 818.75106135 339.45914952 817.43137221 336 816 C334.61977232 815.32305627 333.24481176 814.63528005 331.875 813.9375 C328.96040426 812.46345158 326.06151182 811.14806693 323 810 C321.1746875 809.2884375 321.1746875 809.2884375 319.3125 808.5625 C305.82727293 803.5929441 291.97097442 800.44414021 277.5390625 800.9921875 C275 801 275 801 272 800 C269.99386931 800.29419514 267.9940602 800.63280111 266 801 C263.91821141 801.16643741 261.83463911 801.31170281 259.75 801.4375 C254.0275363 801.84904705 248.58813853 802.74070118 243 804 C242.17628906 804.15726563 241.35257813 804.31453125 240.50390625 804.4765625 C238.08705264 804.98180179 235.79164557 805.63410139 233.4375 806.375 C228.61800283 807.85182649 223.7609956 809.08149159 218.859375 810.25390625 C212.21538113 811.98751667 206.29159163 814.68756069 200.12109375 817.66015625 C197 819 197 819 194.73217773 819.3918457 C191.3048693 820.15472885 188.31073685 821.56067303 185.1640625 823.0703125 C184.16839012 823.54012291 184.16839012 823.54012291 183.15260315 824.01942444 C180.97414254 825.0492396 178.79961019 826.08708213 176.625 827.125 C175.10606634 827.84455957 173.58693937 828.56371121 172.06762695 829.2824707 C164.46314493 832.88670879 156.88013878 836.53370704 149.31640625 840.22265625 C148.62601257 840.55888 147.9356189 840.89510376 147.2243042 841.24151611 C143.95948558 842.83221782 140.69780054 844.42873 137.44189453 846.03759766 C128.8247868 850.25522901 120.10600586 853.96466471 111 857 C110.54625 857.495 110.0925 857.99 109.625 858.5 C107.49221588 860.4687238 105.84463885 860.48279294 103 861 C101.31391831 861.71334226 99.62865809 862.4291941 97.95703125 863.17578125 C94.38568122 864.67988276 90.68588738 865.81209891 87 867 C86.01 867.33 85.02 867.66 84 868 C83.01 868.33 82.02 868.66 81 869 C80.03707031 869.33837891 80.03707031 869.33837891 79.0546875 869.68359375 C73.80218348 871.50032005 68.51520312 872.93803864 63.11328125 874.2421875 C61.04268944 874.74619605 58.97732363 875.27219523 56.91796875 875.8203125 C51.34280242 877.29461836 45.98442957 878.36250561 40.234375 878.8203125 C37.13484677 879.06957526 34.07648034 879.55251195 31 880 C21.13137068 881.29690406 10.9538535 882.34323633 1 882 C-0 881 -0 881 -0.12467116 878.55769905 C-0.12451518 877.45850359 -0.1243592 876.35930813 -0.1241985 875.22680372 C-0.12756944 873.32917195 -0.12756944 873.32917195 -0.13100848 871.39320418 C-0.12844216 869.96815218 -0.12578523 868.54310035 -0.12304783 867.11804867 C-0.12378656 865.61440086 -0.12496418 864.11075322 -0.12654433 862.60710606 C-0.12963408 858.43682618 -0.12642117 854.26657041 -0.12226619 850.09629232 C-0.11884954 845.57390816 -0.12119942 841.0515266 -0.12284368 836.52914196 C-0.12492359 828.59044405 -0.12326318 820.65175361 -0.11920547 812.71305656 C-0.11318843 800.90836907 -0.11286799 789.10368633 -0.11374746 777.29899758 C-0.11506366 757.44488426 -0.11171125 737.59077426 -0.10573006 717.73666191 C-0.09982008 698.06869935 -0.09596554 678.40073817 -0.09487724 658.73277473 C-0.0948085 657.51147196 -0.09473976 656.29016919 -0.09466894 655.03185724 C-0.09433062 648.82988663 -0.09402923 642.62791602 -0.09374207 636.42594541 C-0.09163971 592.45754665 -0.08489692 548.48914969 -0.07543945 504.52075195 C-0.07314862 493.85823568 -0.07087249 483.19571941 -0.06866455 472.53320312 C-0.0685276 471.87193207 -0.06839065 471.21066102 -0.06824955 470.52935145 C-0.06177075 439.13586016 -0.05804897 407.74236873 -0.05493164 376.34887695 C-0.05480011 375.03274522 -0.05466859 373.71661349 -0.05453308 372.36059898 C-0.0532146 359.14388327 -0.05193878 345.92716755 -0.05069422 332.71045184 C-0.04815777 305.78467477 -0.04533651 278.85889774 -0.04234314 251.93312073 C-0.0421372 250.07597305 -0.0421372 250.07597305 -0.04192711 248.18130724 C-0.03272103 165.45420407 -0.0168752 82.72710191 0 0 Z " fill="#1A9120" transform="translate(0,0)"/>
<path d="" fill="#1A9120" transform="translate(0,0)"/>
</svg>
