<?xml version="1.0" encoding="UTF-8"?>
<svg version="1.1" xmlns="http://www.w3.org/2000/svg" width="843" height="649">
<path d="M0 0 C1.27773392 -0.00115384 2.55546784 -0.00230769 3.87192097 -0.0034965 C7.42280746 -0.00656229 10.97366527 -0.00339307 14.52454962 0.00078164 C18.38592919 0.00421803 22.24730588 0.00184462 26.10868603 0.00020415 C32.87751084 -0.00186956 39.64632686 -0.00022587 46.41515064 0.00384235 C56.48016041 0.00987486 66.54516463 0.01017839 76.61017587 0.00930037 C93.54073455 0.00798607 110.47128934 0.01132938 127.40184689 0.01731777 C144.16770224 0.02323272 160.93355596 0.0270833 177.69941235 0.02817059 C179.26248975 0.0282737 179.26248975 0.0282737 180.85714447 0.02837889 C186.14909553 0.02871722 191.4410466 0.0290186 196.73299766 0.02930576 C234.22584661 0.03140675 271.71869343 0.0381457 309.21154118 0.04760838 C345.63764783 0.05679122 382.06375391 0.0638587 418.48986149 0.06811619 C420.78004966 0.06838683 423.07023784 0.06865753 425.36042601 0.0689283 C443.968858 0.07111704 462.57729001 0.07315963 481.18572202 0.07516678 C567.25528419 0.08455587 653.32484083 0.10462584 739.3944025 0.12304783 C739.3944025 214.29304783 739.3944025 428.46304783 739.3944025 649.12304783 C616.17034 649.24679783 616.17034 649.24679783 490.4569025 649.37304783 C464.50815495 649.40946384 438.55940739 649.44587986 411.82433414 649.48339939 C380.16283512 649.5014658 380.16283512 649.5014658 365.34555912 649.50482273 C354.30454123 649.5087981 343.26360821 649.52603403 332.22262156 649.54974154 C320.95294494 649.5736119 309.68332854 649.58206823 298.41362163 649.57682763 C292.30191643 649.57442129 286.19039614 649.57819697 280.07872498 649.59990835 C274.544629 649.619448 269.01084781 649.62029333 263.47673702 649.60665226 C261.48338378 649.60496528 259.49001036 649.60995805 257.49669635 649.62257814 C224.14243435 649.82122045 197.77821449 637.39798013 174.0975275 614.18945408 C167.2485623 606.7972063 162.33532283 597.83496789 157.3944025 589.12304783 C156.40771244 587.39778634 155.42101454 585.67252927 154.43384647 583.94754124 C153.41913993 582.17317778 152.40642736 580.39768708 151.39391422 578.62207127 C148.88037155 574.21831163 146.34142674 569.82930616 143.80284977 565.43994236 C135.95669168 551.87286514 128.17832322 538.26728234 120.41051579 524.65527439 C117.40707075 519.39256863 114.40010286 514.13187597 111.39339542 508.87103367 C109.72691968 505.95512111 108.06067269 503.03907785 106.3944025 500.12304783 C105.72773693 498.95638054 105.06107027 497.78971387 104.3944025 496.62304783 C78.3944025 451.12304783 78.3944025 451.12304783 52.3944025 405.62304783 C52.06440754 405.0455579 51.73441257 404.46806797 51.39441776 403.87307835 C50.72769585 402.70631246 50.06097832 401.53954407 49.39426517 400.37277317 C47.72847966 397.45760405 46.06261823 394.54247836 44.39659977 391.62744236 C41.38599937 386.35961588 38.37596103 381.09147224 35.36873722 375.82171726 C28.56962293 363.90728638 21.75687077 352.00115979 14.8944025 340.12304783 C7.69227457 327.6570256 0.54610574 315.15943539 -6.58948421 302.65527439 C-9.59292925 297.39256863 -12.59989714 292.13187597 -15.60660458 286.87103367 C-17.27308032 283.95512111 -18.93932731 281.03907785 -20.6055975 278.12304783 C-21.27226307 276.95638054 -21.93892973 275.78971387 -22.6055975 274.62304783 C-58.6055975 211.62304783 -58.6055975 211.62304783 -59.60547543 209.87323093 C-60.27251394 208.70593389 -60.93958754 207.53865688 -61.60669613 206.37139988 C-63.26796128 203.46454044 -64.92849172 200.55726716 -66.58801937 197.64941502 C-70.007447 191.65879149 -73.43823921 185.6750506 -76.8868475 179.70117283 C-95.36518254 147.6675869 -110.3527753 117.1307498 -101.15344906 79.15380955 C-93.64815535 51.33338483 -75.67519128 27.47657158 -50.75061703 13.04931736 C-34.61790698 3.9974615 -18.45130753 -0.04079851 0 0 Z " fill="#DCDCDC" transform="translate(103.60559749603271,-0.1230478286743164)"/>
</svg>
