<svg version="1.1" xmlns="http://www.w3.org/2000/svg"><path d="M0 0 C17.03390441 0 17.03390441 0 24.5546875 0.40234375 C26.35826943 0.48951644 28.16190239 0.57563769 29.96557617 0.66088867 C31.39430557 0.72885147 31.39430557 0.72885147 32.85189819 0.79818726 C88.18938196 3.34828884 143.62113348 3.19041849 199 2.625 C200.04969845 2.6143539 201.0993969 2.60370781 202.18090439 2.59273911 C222.16171179 2.38753025 242.1417505 2.14778864 262.11962891 1.74389648 C299.72703805 0.99038584 337.32029078 0.81196598 374.93391919 0.81488919 C381.59172952 0.81453697 388.24948744 0.80287795 394.90728128 0.7889536 C401.49491358 0.77569622 408.08252306 0.77052035 414.67016852 0.77115268 C418.53423177 0.77140099 422.39823039 0.76893405 426.26227951 0.75797462 C453.93844978 0.68481088 481.68612149 1.49041782 509.1875 4.8125 C509.89607147 4.89614807 510.60464294 4.97979614 511.33468628 5.065979 C530.83821401 7.38581867 552.19905853 10.09952927 570 19 C570 68.5 570 118 570 169 C381.9 169 193.8 169 0 169 C0 113.23 0 57.46 0 0 Z " transform="translate(0,1)"/></svg>
